<?xml version="1.0" encoding="utf-8"?>
<!-- Generator: Adobe Illustrator 22.1.0, SVG Export Plug-In . SVG Version: 6.00 Build 0)  -->
<svg version="1.1" id="Ebene_1" xmlns="http://www.w3.org/2000/svg" xmlns:xlink="http://www.w3.org/1999/xlink" x="0px" y="0px"
	 viewBox="0 0 300 300" style="enable-background:new 0 0 300 300;" xml:space="preserve">
<style type="text/css">
	.st0{fill:#FFFFFF;}
</style>
<g id="aJC3RE_1_">
	<g>
		<path class="st0" d="M145.3,0.6c3.5,0,7,0,10.5,0c0.7,0.2,1.5,0.5,2.2,0.6c8,1,16.2,1.3,24,3.1c32,7.3,58.8,23.8,80.2,48.7
			c12,13.9,21.3,29.5,27.7,46.8c5.8,15.5,9.5,31.5,10,48.1c0,0.7,0.4,1.4,0.6,2.2c0,4.5,0,9,0,13.5c-0.2,0.6-0.5,1.2-0.6,1.9
			c-1,7.5-1.5,15.2-3.1,22.6c-3.2,14.9-9.9,28.1-20.8,39c-6.9,6.8-14.9,12-23.7,16c-1.3,0.6-2.2,1.1-2.4,2.8
			c-0.2,2.5-0.8,4.9-1.4,7.3c-4.2,17.3-15.4,28.6-31.1,35.9c-16.8,7.8-34.8,10.2-53.1,11.1c-2.5,0.1-5,0.4-7.5,0.6
			c-4.3,0-8.6,0-12.9,0c-0.8-0.2-1.7-0.6-2.5-0.6c-11.5,0.1-23-1.2-34.2-3.6c-14.2-2.9-27.6-7.6-38.9-17.2
			c-11.1-9.5-16.4-21.7-17.4-35.9c-0.1-1.9-0.6-2.9-2.3-3.7C37.2,234.1,27,226.8,19,216.8C8.8,203.9,3.6,189,1.8,172.9
			c-0.4-3.3-0.8-6.6-1.2-10c0-4.3,0-8.6,0-12.9c0.2-0.8,0.5-1.6,0.6-2.4c0.8-7.2,1.1-14.5,2.5-21.5c3.4-17.2,9.2-33.5,18-48.7
			c9-15.6,20.2-29.5,33.9-41.1c12.9-11,27.2-19.7,43.1-25.7c11.8-4.5,23.9-7.7,36.6-8.7C138.6,1.5,142,1,145.3,0.6z M94.2,25.9
			C82.4,31,72,38,62.5,46.2C50.6,56.6,40.8,68.7,32.8,82.3c-0.9,1.5-1.2,2.8-0.6,4.6c5.7,16,7.1,32.3,4.2,49.1
			c-2.7,16.1-9,30.4-20,42.6c-0.7,0.7-1,2.3-0.7,3.3c3.4,14.9,10.6,27.5,22.6,37.1c4.3,3.4,9.1,6.2,13.2,8.9
			c3.1-4.6,5.4-8.9,8.5-12.5c7.6-8.9,17.8-14,28.6-17.9c19.3-7,39.5-8.9,59.8-9.2c11.2-0.1,22.5,1.2,33.7,2.2
			c12.8,1.2,25.2,4.4,37,9.4c9.8,4.2,18.8,9.8,25,18.8c2.5,3.6,4.2,7.9,6.5,12.5c5.2-3.8,10.9-7.2,15.8-11.5
			c11.8-10.3,17.3-24.1,20.2-39.1c0.2-1.3-0.4-3-1.2-4.2c-2.5-3.5-5.6-6.5-7.9-10.1c-10.5-15.9-14.9-33.4-13.7-52.5
			c0.6-9.3,2.6-18.2,5.9-26.9c0.3-0.8,0.3-2.2-0.1-2.8c-5.5-8-10.7-16.4-16.9-23.9c-9.3-11.3-20.5-20.4-33-27.9
			c-4-2.4-8.1-4.5-12.2-6.7c32.9,39.7,16.3,88.2-9.6,108.4c-26.7,20.8-66.8,23.8-96.8-2.6c-14-12.3-22.2-28-24.4-46.4
			C73.7,62.9,80,43.2,94.2,25.9z M87.9,75.5c0.1,35.1,27.9,61.7,60.2,62.7c37.6,1.3,64.2-28.4,65.2-60.3c1.1-37.3-28.4-64.1-60.6-65
			C115.9,11.9,87.8,41.5,87.9,75.5z M151.1,288.7c7.5-0.5,15.4-1,23.4-1.5c10.4-0.7,20.6-2.5,30.5-5.9c10.2-3.4,19.4-8.4,25.9-17.3
			c4.7-6.4,6.6-13.7,7.3-21.6c0.6-7.2-0.9-13.5-5.7-19c-5.4-6.2-12.2-10-19.7-13.1c-16.8-6.9-34.6-9-52.6-9.8
			c-15.4-0.7-30.8,0.1-46.1,2.8c-11.9,2.1-23.4,5.1-34.1,11c-5,2.8-9.3,6.4-12.8,10.9c-5,6.4-4.9,13.9-3.8,21.3
			c1.9,13.2,9.1,22.9,20.7,29.4c12.4,6.9,26.1,9.6,40,11.1C132.9,288,141.8,288.1,151.1,288.7z M23.7,102.2
			c-8,19.2-11.3,39.2-10.3,60C25.3,143.7,28,123.5,23.7,102.2z M277.6,102.2c-2.6,10-2.9,20.1-1.1,30.2c1.8,10.1,5.2,19.4,11.4,27.6
			C288.5,140,285.2,120.8,277.6,102.2z"/>
		<path class="st0" d="M125.4,238c0,5.9,0,11.9,0,17.8c0,4.1-2.5,7.1-6,7.2c-3.2,0.1-6.2-2.9-6.3-6.7c-0.1-12.2-0.1-24.4,0-36.6
			c0-4.1,3.1-6.7,6.7-6.5c3.2,0.2,5.6,3.1,5.6,6.9C125.4,226.1,125.4,232.1,125.4,238z"/>
		<path class="st0" d="M175.8,238c0-5.9,0-11.9,0-17.8c0-3.9,2.5-6.9,5.8-6.9c3.5-0.1,6.4,2.5,6.4,6.5c0.1,12.2,0.1,24.4,0,36.6
			c0,3.8-3,7-6.2,6.7c-2.9-0.2-6.2-2.1-6.1-7.1C175.9,249.9,175.8,244,175.8,238z"/>
	</g>
</g>
</svg>
